<?xml version="1.0" encoding="UTF-8"?><svg id="Layer_1" xmlns="http://www.w3.org/2000/svg" viewBox="0 0 778.27 781.22"><defs><style>.cls-1{fill:#f6f6f6;}</style></defs><path class="cls-1" d="m526.05,454.48h248.5c-30.48,185.35-191.43,326.75-385.41,326.75S34.2,639.83,3.72,454.48h243c20.18,57.68,75.09,99.07,139.66,99.07s119.49-41.38,139.66-99.07Z"/><path class="cls-1" d="m246.82,356.46H0C17.3,156.73,184.91,0,389.13,0s371.84,156.73,389.13,356.46h-252.32c-20.25-57.54-75.09-98.78-139.56-98.78s-119.31,41.24-139.56,98.78Z"/><path class="cls-1" d="m470.38,410.5c0,16.13-4.55,31.19-12.43,43.98-14.77,24.02-41.3,40.02-71.57,40.02s-56.79-16.01-71.57-40.02c-7.88-12.78-12.43-27.85-12.43-43.98,0-20.59,7.41-39.44,19.7-54.04,15.4-18.32,38.49-29.96,64.3-29.96s48.9,11.63,64.3,29.96c12.3,14.6,19.7,33.46,19.7,54.04Z"/></svg>